<?xml version="1.0" encoding="UTF-8"?>
<svg id="Ebene_1" xmlns="http://www.w3.org/2000/svg" version="1.1" viewBox="0 0 500 300">
  <!-- Generator: Adobe Illustrator 29.8.1, SVG Export Plug-In . SVG Version: 2.1.1 Build 2)  -->
  <defs>
    <style>
      .st0 {
        fill: #1d1d1b;
      }

      .st1 {
        fill: #ff5252;
      }
    </style>
  </defs>
  <rect class="st0" width="500" height="300"/>
  <path class="st1" d="M178.8,176.8h13.3l37.2,33.1c1.8,1.6,4.1,2.4,6.4,2.4,5.3,0,9.7-4.3,9.7-9.7v-105c0-5.3-4.3-9.7-9.7-9.7s-4.6.9-6.4,2.4l-37.2,33.1h-13.3c-7.4,0-13.3,6-13.3,13.3v26.7c0,7.4,6,13.3,13.3,13.3ZM267.4,127.6c-2.6,2.6-2.6,6.8,0,9.4l13,13-13,13c-2.6,2.6-2.6,6.8,0,9.4,2.6,2.6,6.8,2.6,9.4,0l13-13,13,13c2.6,2.6,6.8,2.6,9.4,0,2.6-2.6,2.6-6.8,0-9.4l-13-13,13-13c2.6-2.6,2.6-6.8,0-9.4-2.6-2.6-6.8-2.6-9.4,0l-13,13-13-13c-2.6-2.6-6.8-2.6-9.4,0Z"/>
</svg>