<?xml version="1.0" encoding="UTF-8"?>
<svg id="Ebene_1" xmlns="http://www.w3.org/2000/svg" version="1.1" viewBox="0 0 500 300">
  <!-- Generator: Adobe Illustrator 29.8.1, SVG Export Plug-In . SVG Version: 2.1.1 Build 2)  -->
  <defs>
    <style>
      .st0 {
        fill: #1d1d1b;
      }

      .st1 {
        fill: #fcf083;
      }
    </style>
  </defs>
  <rect class="st0" width="500" height="300"/>
  <path class="st1" d="M304.9,87.9c-2.9-2.3-7.1-1.9-9.4,1-2.3,2.9-1.9,7.1,1,9.4,15.1,12.2,24.7,30.9,24.7,51.8s-9.6,39.5-24.7,51.8c-2.9,2.3-3.3,6.5-1,9.4,2.3,2.9,6.5,3.3,9.4,1,18-14.7,29.6-37.1,29.6-62.2s-11.5-47.5-29.6-62.1ZM288.1,108.6c-2.9-2.3-7.1-1.9-9.4,1-2.3,2.9-1.9,7.1,1,9.4,9,7.3,14.8,18.5,14.8,31s-5.8,23.7-14.8,31.1c-2.9,2.3-3.3,6.5-1,9.4,2.3,2.9,6.5,3.3,9.4,1,12-9.8,19.7-24.7,19.7-41.4s-7.7-31.6-19.7-41.4h0ZM271.3,129.3c-2.9-2.3-7.1-1.9-9.4,1-2.3,2.9-1.9,7.1,1,9.4,3,2.4,4.9,6.2,4.9,10.3s-1.9,7.9-4.9,10.4c-2.9,2.3-3.3,6.5-1,9.4,2.3,2.9,6.5,3.3,9.4,1,6-4.9,9.8-12.4,9.8-20.7s-3.9-15.8-9.8-20.7ZM178.8,176.7h13.3l37.3,33.1c1.8,1.6,4.1,2.4,6.4,2.4,5.3,0,9.7-4.3,9.7-9.7v-105.2c0-5.3-4.3-9.7-9.7-9.7s-4.6.9-6.4,2.4l-37.3,33.1h-13.3c-7.4,0-13.3,6-13.3,13.3v26.7c0,7.4,6,13.3,13.3,13.3Z"/>
</svg>